<svg width="1059" height="1059" viewBox="0 0 1059 1059" fill="none" xmlns="http://www.w3.org/2000/svg">
<path d="M992.812 99.2812H66.1875C47.9103 99.2812 33.0938 114.098 33.0938 132.375V926.625C33.0938 944.902 47.9103 959.719 66.1875 959.719H992.812C1011.09 959.719 1025.91 944.902 1025.91 926.625V132.375C1025.91 114.098 1011.09 99.2812 992.812 99.2812Z" fill="#ECF7F3"/>
<path d="M992.812 99.2812H66.1875C57.4105 99.2813 48.993 102.768 42.7867 108.974C36.5804 115.18 33.0938 123.598 33.0938 132.375V297.844H1025.91V132.375C1025.91 123.598 1022.42 115.18 1016.21 108.974C1010.01 102.768 1001.59 99.2813 992.812 99.2812Z" fill="#3AAF83"/>
<path d="M751.559 489.787L635.4 373.628C632.308 370.561 628.64 368.135 624.608 366.488C620.576 364.841 616.259 364.006 611.903 364.031H446.435C442.079 364.006 437.762 364.841 433.73 366.488C429.698 368.135 426.03 370.561 422.938 373.628L307.441 489.787C304.374 492.88 301.947 496.547 300.3 500.579C298.653 504.611 297.819 508.929 297.844 513.284V678.753C297.819 683.108 298.653 687.426 300.3 691.458C301.947 695.49 304.374 699.157 307.441 702.249L423.6 818.408C426.692 821.476 430.36 823.902 434.392 825.549C438.424 827.196 442.741 828.031 447.097 828.006H612.565C616.921 828.031 621.238 827.196 625.27 825.549C629.302 823.902 632.97 821.476 636.062 818.408L752.221 702.249C755.288 699.157 757.715 695.49 759.362 691.458C761.009 687.426 761.843 683.108 761.818 678.753V513.284C761.757 508.882 760.818 504.537 759.057 500.502C757.295 496.467 754.746 492.825 751.559 489.787Z" fill="#3AAF83"/>
<path d="M576.162 595.688L619.184 552.997C625.416 546.765 628.917 538.313 628.917 529.5C628.917 520.687 625.416 512.235 619.184 506.003C612.952 499.772 604.5 496.271 595.687 496.271C586.874 496.271 578.423 499.772 572.191 506.003L529.5 549.025L486.809 506.003C483.723 502.918 480.06 500.47 476.029 498.8C471.997 497.13 467.676 496.271 463.312 496.271C458.949 496.271 454.628 497.13 450.596 498.8C446.565 500.47 442.901 502.918 439.816 506.003C436.73 509.089 434.283 512.752 432.613 516.784C430.943 520.815 430.083 525.136 430.083 529.5C430.083 533.864 430.943 538.185 432.613 542.216C434.283 546.248 436.73 549.911 439.816 552.997L482.838 595.688L439.816 638.378C433.584 644.61 430.083 653.062 430.083 661.875C430.083 670.688 433.584 679.14 439.816 685.372C446.048 691.603 454.499 695.104 463.312 695.104C472.125 695.104 480.577 691.603 486.809 685.372L529.5 642.35L572.191 685.372C578.423 691.603 586.874 695.104 595.687 695.104C604.5 695.104 612.952 691.603 619.184 685.372C625.416 679.14 628.917 670.688 628.917 661.875C628.917 653.062 625.416 644.61 619.184 638.378L576.162 595.688Z" fill="#ECF7F3"/>
</svg>
