<svg width="64" height="64" viewBox="0 0 64 64" fill="none" xmlns="http://www.w3.org/2000/svg">
<path d="M32 6C26.8577 6 21.8308 7.52487 17.5552 10.3818C13.2795 13.2387 9.94701 17.2994 7.97913 22.0502C6.01125 26.8011 5.49636 32.0288 6.49958 37.0723C7.50279 42.1159 9.97905 46.7486 13.6152 50.3848C17.2514 54.0209 21.8841 56.4972 26.9276 57.5004C31.9712 58.5036 37.1989 57.9887 41.9498 56.0209C46.7006 54.053 50.7613 50.7205 53.6182 46.4448C56.4751 42.1691 58 37.1423 58 32C57.9927 25.1066 55.2511 18.4976 50.3767 13.6233C45.5024 8.74889 38.8934 6.00728 32 6ZM32 54C27.6488 54 23.3953 52.7097 19.7775 50.2923C16.1596 47.8749 13.3398 44.439 11.6746 40.419C10.0095 36.3991 9.57385 31.9756 10.4227 27.708C11.2716 23.4404 13.3669 19.5204 16.4436 16.4437C19.5204 13.3669 23.4404 11.2716 27.708 10.4227C31.9756 9.57385 36.3991 10.0095 40.419 11.6747C44.439 13.3398 47.8749 16.1596 50.2923 19.7775C52.7097 23.3953 54 27.6488 54 32C53.9934 37.8327 51.6734 43.4247 47.549 47.549C43.4247 51.6734 37.8327 53.9934 32 54ZM39.415 30.585C39.6009 30.7707 39.7485 30.9913 39.8491 31.2341C39.9498 31.4769 40.0016 31.7372 40.0016 32C40.0016 32.2628 39.9498 32.5231 39.8491 32.7659C39.7485 33.0087 39.6009 33.2293 39.415 33.415L29.415 43.415C29.2292 43.6008 29.0086 43.7482 28.7658 43.8488C28.523 43.9494 28.2628 44.0011 28 44.0011C27.7372 44.0011 27.477 43.9494 27.2342 43.8488C26.9914 43.7482 26.7708 43.6008 26.585 43.415C26.3992 43.2292 26.2518 43.0086 26.1512 42.7658C26.0506 42.523 25.9989 42.2628 25.9989 42C25.9989 41.7372 26.0506 41.477 26.1512 41.2342C26.2518 40.9914 26.3992 40.7708 26.585 40.585L35.1725 32L26.585 23.415C26.2097 23.0397 25.9989 22.5307 25.9989 22C25.9989 21.4693 26.2097 20.9603 26.585 20.585C26.9603 20.2097 27.4693 19.9989 28 19.9989C28.5307 19.9989 29.0397 20.2097 29.415 20.585L39.415 30.585Z" fill="#3AAF83"/>
</svg>
